# xmcd
#
# Track frame offsets:
#	150
#	15270
#	35429
#	49577
#	64514
#	86358
#	104631
#	118093
#	134977
#	150148
#
# Disc length: 2225 seconds
#
# Revision: 1
# Processed by: cddbd v1.5.2PL0 Copyright (c) Steve Scherf et al.
# Submitted via: audiograbber 1.83.01
#
DISCID=7708af0a
DTITLE=Eddie Stone - Right Tonight
DYEAR=1999
DGENRE=Country
TTITLE0=Almost Saturday Night
TTITLE1=I'll Have A Good Cry
TTITLE2=Ain't Been Home
TTITLE3=House On The Hill
TTITLE4=You Can't Do That
TTITLE5=Chain Of Broken Dreams
TTITLE6=I've Been Wrong So Long (Get Right Tonight)
TTITLE7=Don't Turn Out The Lights (I'm Afraid Of The Dark)
TTITLE8=My Back's Against The Wall
TTITLE9=Shot Down In Cold Blood
EXTD=
EXTT0=
EXTT1=
EXTT2=
EXTT3=
EXTT4=
EXTT5=
EXTT6=
EXTT7=
EXTT8=
EXTT9=
PLAYORDER=
